<?xml version="1.0" encoding="UTF-8"?>
<svg version="1.1" xmlns="http://www.w3.org/2000/svg" width="512" height="511">
<path d="M0 0 C1.63879092 -0.00346334 3.27757951 -0.00823242 4.9163633 -0.01418173 C9.38645236 -0.02662867 13.85634764 -0.02055028 18.32643712 -0.01122308 C23.16020866 -0.00440686 27.99394797 -0.01492656 32.82771301 -0.02316284 C42.2842528 -0.0364753 51.74072099 -0.03363345 61.19726353 -0.02492492 C68.88610342 -0.01813858 76.57492331 -0.01723576 84.26376534 -0.02049637 C85.35978026 -0.02095607 86.45579518 -0.02141577 87.58502268 -0.0218894 C89.8118515 -0.02284861 92.03868032 -0.02382125 94.26550914 -0.02480717 C115.12769061 -0.03335388 135.98983248 -0.02353842 156.85200746 -0.00740607 C174.73485931 0.00599457 192.61765274 0.0036697 210.50050354 -0.01016235 C231.28855747 -0.0262341 252.07657672 -0.032528 272.864636 -0.02332556 C275.08339281 -0.02236996 277.30214963 -0.02142685 279.52090645 -0.02049637 C281.1582269 -0.01980213 281.1582269 -0.01980213 282.82862453 -0.01909386 C290.50362152 -0.01650862 298.17859644 -0.02086496 305.85359001 -0.02793503 C315.2135224 -0.03636803 324.57337937 -0.03403217 333.93330317 -0.0180928 C338.70467293 -0.01023401 343.47591714 -0.00707748 348.24728584 -0.01704025 C352.62260381 -0.02603755 356.99768088 -0.02097214 361.37297726 -0.0051076 C362.94819507 -0.00178095 364.5234336 -0.00340563 366.09863787 -0.01073496 C378.70923901 -0.0648694 391.2068989 0.91285911 402.58424377 6.88095093 C403.24674133 7.22206909 403.90923889 7.56318726 404.59181213 7.91464233 C419.59741581 16.04892623 430.33465584 29.92925341 435.32182753 46.19413275 C437.5889163 55.21320149 437.8826645 63.82775522 437.8401947 73.04905701 C437.84365793 74.70164769 437.84842694 76.35423606 437.85437644 78.00681967 C437.8668246 82.51497412 437.86074444 87.02293646 437.85141778 91.53109133 C437.84460218 96.40572469 437.85512089 101.28032609 437.86335754 106.154953 C437.87667006 115.69103301 437.8738283 125.22704203 437.86511962 134.76312477 C437.8583341 142.51538761 437.85743011 150.2676306 437.86069107 158.01989555 C437.86115077 159.12481401 437.86161047 160.22973246 437.8620841 161.36813329 C437.86304331 163.61300458 437.86401595 165.85787586 437.86500187 168.10274713 C437.87354839 189.13321111 437.86373301 210.1636358 437.84760077 231.19409334 C437.83419641 249.22653233 437.83652811 267.25891337 437.85035706 285.29135132 C437.86642269 306.250051 437.87272645 327.2087163 437.86352026 348.16742128 C437.86256465 350.40355487 437.86162154 352.63968847 437.86069107 354.87582207 C437.86022824 355.97594279 437.85976542 357.07606351 437.85928857 358.20952122 C437.85670177 365.95007907 437.86106294 373.69061505 437.86812973 381.43116951 C437.87655576 390.86764828 437.87424129 400.30405222 437.8582875 409.74052245 C437.85041995 414.55214942 437.84728732 419.36365175 437.85723495 424.17527771 C437.86621368 428.58503175 437.86119693 432.99454631 437.8453023 437.40427881 C437.84196793 438.99426579 437.84361808 440.58427325 437.85092966 442.17424691 C437.93867679 462.8515694 432.48702244 478.86019324 418.27174377 494.06845093 C406.93454356 504.93813773 392.31458917 511.49625084 376.58372402 511.51237869 C375.55984103 511.51545764 375.55984103 511.51545764 374.51527354 511.51859879 C372.22325829 511.52426257 369.93130324 511.52281231 367.63928223 511.52139282 C365.98122401 511.52397682 364.32316642 511.52699008 362.66510969 511.53039622 C358.10473644 511.53846552 353.54437892 511.54025576 348.98399937 511.54099369 C344.06697042 511.54284439 339.14994964 511.55039187 334.23292542 511.55712891 C323.47862763 511.57071278 312.72433357 511.57673718 301.97002864 511.58113956 C295.25427531 511.58390219 288.53852343 511.58813961 281.82277107 511.59264374 C263.22728408 511.60483703 244.63179824 511.61513587 226.03630733 511.61851883 C224.84605435 511.6187384 223.65580137 511.61895796 222.42948011 511.61918418 C221.23638208 511.61940246 220.04328405 511.61962074 218.81403154 511.61984563 C216.39637117 511.62028909 213.97871079 511.62073566 211.56105042 511.6211853 C210.36180789 511.62140673 209.16256537 511.62162816 207.92698217 511.6218563 C188.50024422 511.62580328 169.07354381 511.64325399 149.64682036 511.66654482 C129.69962373 511.6902665 109.75244593 511.70272107 89.80523497 511.70388675 C78.60651421 511.70480311 67.40784234 511.71054552 56.20913506 511.72870636 C46.67182822 511.74411841 37.13458538 511.74922131 27.59726845 511.74096826 C22.7330338 511.73706554 17.86892799 511.7379729 13.00470924 511.7520256 C8.54653682 511.76478718 4.08858974 511.76354721 -0.36958247 511.75143489 C-1.97730964 511.74948179 -3.5850529 511.75253836 -5.19275749 511.76127926 C-17.3697072 511.8232607 -28.54661934 510.49314122 -39.54075623 504.88095093 C-40.21300232 504.53838257 -40.88524841 504.19581421 -41.5778656 503.84286499 C-56.37743574 495.90900237 -65.90834214 483.08258184 -71.53294373 467.38876343 C-75.05446963 454.73132306 -74.81002999 441.77061959 -74.73606873 428.76376343 C-74.73232976 426.8107925 -74.72948697 424.85781968 -74.72749329 422.90484619 C-74.71992635 417.8119064 -74.70033905 412.71908414 -74.67808533 407.62619019 C-74.65747579 402.41034535 -74.64845955 397.19448116 -74.63841248 391.97860718 C-74.61708532 381.77933733 -74.5830352 371.58015397 -74.54075623 361.38095093 C-70.91937422 362.79887254 -67.57511635 364.38249255 -64.18138123 366.28720093 C-63.15730164 366.86075317 -62.13322205 367.43430542 -61.07810974 368.02523804 C-59.99328308 368.63762329 -58.90845642 369.25000854 -57.79075623 369.88095093 C-56.66403503 370.51460571 -55.53731384 371.1482605 -54.37644958 371.80111694 C-47.5915838 375.62756993 -40.84338544 379.50826099 -34.14305115 383.4805603 C-3.70228572 404.88280788 -3.70228572 404.88280788 30.45924377 413.38095093 C34.16902435 412.12027972 37.36536672 410.28052221 40.70924377 408.25595093 C41.64687561 407.71680054 42.58450745 407.17765015 43.55055237 406.62216187 C46.53476745 404.89895932 49.49682844 403.14131114 52.45924377 401.38095093 C54.38233034 400.26136796 56.30680388 399.14416385 58.23268127 398.02938843 C62.20858283 395.72368595 66.17620128 393.40452556 70.13893127 391.07626343 C76.80088593 387.17011577 83.50103252 383.33186556 90.20924377 379.50595093 C91.0843158 379.00667587 91.0843158 379.00667587 91.97706604 378.49731445 C94.94629453 376.80333546 97.91597472 375.11015081 100.88600159 373.41757202 C106.78726066 370.05443042 112.68616727 366.68717025 118.58424377 363.31845093 C119.16460388 362.98702087 119.74496399 362.65559082 120.34291077 362.31411743 C129.79981756 356.91247164 139.23698438 351.47712886 148.66627502 346.0274353 C157.21442313 341.09023219 165.78557554 336.19403154 174.36149597 331.30532837 C183.46199606 326.115752 192.51682401 320.85182036 201.55299377 315.55111694 C210.0566465 310.57947635 218.64417127 305.76350463 227.2646637 300.99765015 C233.27017877 297.67882738 233.27017877 297.67882738 239.04518127 293.98251343 C241.45924377 292.38095093 241.45924377 292.38095093 243.45924377 292.38095093 C244.69064672 286.76127814 244.69064672 286.76127814 243.45924377 281.38095093 C241.79301606 280.71318791 240.1262144 280.04685718 238.45924377 279.38095093 C235.71340216 277.92589264 233.02625698 276.3704039 230.33424377 274.81845093 C228.91637074 274.00221591 227.49715065 273.18831528 226.07643127 272.37704468 C225.45365295 272.01796021 224.83087463 271.65887573 224.18922424 271.28890991 C220.20001301 269.19522143 216.90030205 269.04109745 212.45924377 269.38095093 C209.80465664 270.48241519 207.49846731 271.59668164 205.02174377 273.00595093 C203.93373474 273.60331055 203.93373474 273.60331055 202.82374573 274.21273804 C194.45029855 278.8522338 186.20814932 283.73063886 177.95533752 288.58016968 C171.23556235 292.52294182 164.47721982 296.39667412 157.70924377 300.25595093 C157.12565094 300.58886139 156.54205811 300.92177185 155.94078064 301.26477051 C152.96878119 302.96005698 149.99636568 304.65461189 147.0236969 306.34872437 C141.74813331 309.35575955 136.47653317 312.3697303 131.20466614 315.38323975 C128.29223747 317.04803029 125.37967152 318.71258058 122.46705627 320.37704468 C121.88994904 320.7068483 121.3128418 321.03665192 120.71824646 321.37644958 C117.19873998 323.38756546 113.67857566 325.39752471 110.15791321 327.40661621 C98.24348032 334.20573165 86.33757477 341.0188589 74.45924377 347.88095093 C65.61455972 352.98746312 56.76868303 358.09190396 47.90919495 363.17269897 C46.65994426 363.88967289 45.41123752 364.60759548 44.1631012 365.32650757 C42.43125958 366.32378446 40.69725258 367.31729816 38.96315002 368.31063843 C37.971297 368.88024292 36.97944397 369.44984741 35.95753479 370.03671265 C30.2671169 373.0985167 24.77919944 373.20813227 18.45924377 372.38095093 C13.46376458 370.63285221 9.01361364 368.0356479 4.45924377 365.38095093 C3.61877502 364.89787476 2.77830627 364.41479858 1.91236877 363.91708374 C-3.09397196 361.03737715 -8.0808948 358.12611892 -13.05638123 355.19345093 C-19.52721041 351.38063325 -26.03073077 347.62633808 -32.54075623 343.88095093 C-41.339363 338.80957782 -50.13435493 333.73206908 -58.91575623 328.63095093 C-59.92638123 328.04636108 -60.93700623 327.46177124 -61.97825623 326.85946655 C-63.38204529 326.04252319 -63.38204529 326.04252319 -64.81419373 325.20907593 C-65.63323181 324.73373413 -66.4522699 324.25839233 -67.29612732 323.76864624 C-68.03685486 323.31070679 -68.7775824 322.85276733 -69.54075623 322.38095093 C-70.29018494 322.03217896 -71.03961365 321.68340698 -71.81175232 321.32406616 C-74.80917745 317.95545467 -74.02581351 313.79445267 -73.93138123 309.46298218 C-73.92572144 308.49060104 -73.92006165 307.51821991 -73.91423035 306.51637268 C-73.89182552 303.40823293 -73.84162103 300.30124269 -73.79075623 297.19345093 C-73.77069656 295.08734778 -73.75244486 292.98122657 -73.73606873 290.87509155 C-73.69194715 285.70993456 -73.62289082 280.54563768 -73.54075623 275.38095093 C-66.86603168 278.65608768 -60.27915544 281.97118528 -53.91575623 285.81845093 C-52.45418805 286.68937033 -50.99189886 287.55908044 -49.52903748 288.42782593 C-48.73835876 288.89768921 -47.94768005 289.36755249 -47.13304138 289.85165405 C-41.04460687 293.4434749 -34.90852241 296.95383506 -28.78196716 300.48007202 C-23.60516674 303.45999495 -18.4296754 306.44182955 -13.26712036 309.44636536 C-11.52425558 310.46057857 -9.78054903 311.47332969 -8.03660583 312.48568726 C-5.86260332 313.74833129 -3.69012171 315.01359941 -1.51951599 316.28207397 C13.01298531 325.87767785 13.01298531 325.87767785 29.45924377 327.38095093 C41.23434457 322.74812439 52.0640944 315.62445096 62.92799377 309.21688843 C69.65461787 305.25371117 76.42653149 301.37210871 83.20924377 297.50595093 C84.38910879 296.83288109 85.56895899 296.15978528 86.74879456 295.48666382 C89.12758826 294.12981641 91.50668449 292.77350139 93.88600159 291.41757202 C99.78726066 288.05443042 105.68616727 284.68717025 111.58424377 281.31845093 C112.16460388 280.98702087 112.74496399 280.65559082 113.34291077 280.31411743 C122.79981756 274.91247164 132.23698438 269.47712886 141.66627502 264.0274353 C150.21442313 259.09023219 158.78557554 254.19403154 167.36149597 249.30532837 C176.46712824 244.11282536 185.52679643 238.84548134 194.56837463 233.54232788 C202.92369199 228.65786339 211.36682662 223.93851775 219.82740784 219.23934937 C226.44194601 215.55238421 232.93079224 211.73572863 239.29908752 207.63876343 C241.45924377 206.38095093 241.45924377 206.38095093 243.45924377 206.38095093 C244.66499502 200.57810759 244.66499502 200.57810759 242.45924377 195.38095093 C239.13453462 192.94083958 235.45856627 191.09080449 231.83424377 189.13095093 C230.86100159 188.57665405 229.8877594 188.02235718 228.88502502 187.45126343 C223.09996169 184.29011173 219.05934895 182.3518285 212.45924377 183.38095093 C209.74561379 184.47683996 207.46578584 185.56141889 204.95924377 187.00595093 C204.24204163 187.40201538 203.52483948 187.79807983 202.78590393 188.20614624 C200.32978301 189.57462296 197.89316985 190.97339034 195.45924377 192.38095093 C194.55013245 192.90592163 193.64102112 193.43089233 192.70436096 193.97177124 C187.67176822 196.88681563 182.65281887 199.82449973 177.63893127 202.77157593 C171.78157668 206.20627429 165.87912003 209.55546909 159.95924377 212.88095093 C152.12274935 217.28579973 144.33787595 221.76938381 136.58424377 226.31845093 C128.42773565 231.10204672 120.22127887 235.7820832 111.95924377 240.38095093 C102.81237655 245.47356937 93.74227174 250.68138163 84.71168518 255.97714233 C73.47428649 262.56065026 62.16114193 269.01020363 50.84107971 275.45028687 C48.42893839 276.82735975 46.02092065 278.21032448 43.61647034 279.60067749 C42.98077118 279.96714386 42.34507202 280.33361023 41.69010925 280.71118164 C40.4654994 281.41743875 39.24210689 282.12581219 38.02012634 282.83660889 C31.43825206 286.62615834 25.96729605 287.23044857 18.45924377 286.38095093 C15.58448792 285.25204468 15.58448792 285.25204468 12.74440002 283.75595093 C11.18241882 282.93598633 11.18241882 282.93598633 9.58888245 282.09945679 C4.78677422 279.46258653 0.04653658 276.73735131 -4.66575623 273.94345093 C-6.77216024 272.7045458 -8.87894448 271.46628695 -10.98606873 270.22860718 C-12.06404724 269.59454956 -13.14202576 268.96049194 -14.25267029 268.30722046 C-19.66540113 265.13626365 -25.10351531 262.00962895 -30.54075623 258.88095093 C-39.29945058 253.83338886 -48.05217473 248.77576704 -56.79075623 243.69345093 C-57.78462341 243.11723999 -58.7784906 242.54102905 -59.80247498 241.94735718 C-61.19659607 241.1352478 -61.19659607 241.1352478 -62.61888123 240.30673218 C-63.42744568 239.8366272 -64.23601013 239.36652222 -65.06907654 238.88217163 C-65.88473083 238.3867688 -66.70038513 237.89136597 -67.54075623 237.38095093 C-68.62018494 236.86717896 -69.69961365 236.35340698 -70.81175232 235.82406616 C-73.84798383 233.10590829 -73.96389609 232.72353879 -74.22190857 228.88778687 C-74.22096109 227.04669321 -74.18719872 225.20542535 -74.12669373 223.36532593 C-74.11820404 222.39435974 -74.10971436 221.42339355 -74.10096741 220.42300415 C-74.06740408 217.32451996 -73.99211804 214.22864713 -73.91575623 211.13095093 C-73.88566047 209.02942604 -73.85828399 206.92786032 -73.83372498 204.82626343 C-73.76760276 199.67682115 -73.6640593 194.5293286 -73.54075623 189.38095093 C-69.90815277 190.74567916 -66.63114216 192.37896253 -63.27903748 194.33016968 C-62.25616638 194.92313843 -61.23329529 195.51610718 -60.1794281 196.12704468 C-59.08179138 196.76770874 -57.98415466 197.4083728 -56.85325623 198.06845093 C-55.69135275 198.74328473 -54.52923951 199.41775749 -53.3669281 200.09188843 C-50.95351583 201.49202182 -48.54101163 202.89370112 -46.12913513 204.29647827 C-40.60808655 207.50586301 -35.07388172 210.69244884 -29.54075623 213.88095093 C-23.44148708 217.39613784 -17.34297179 220.91247591 -11.2563324 224.44949341 C-9.49100412 225.4751072 -7.72497152 226.49949757 -5.95872498 227.52352905 C-3.75159302 228.80366559 -1.54576699 230.08605759 0.65846252 231.3711853 C14.14755382 240.16663632 14.14755382 240.16663632 29.45924377 241.38095093 C41.23459494 236.77260672 52.06528286 229.624107 62.92018127 223.22079468 C69.68930647 219.23239418 76.50736165 215.33173381 83.33424377 211.44345093 C85.70690102 210.09104444 88.07926691 208.73812799 90.45143127 207.38485718 C91.0370282 207.05079865 91.62262512 206.71674011 92.22596741 206.37255859 C98.31573886 202.89613666 104.38814173 199.38983897 110.45924377 195.88095093 C120.03299605 190.34855979 129.62593736 184.85064508 139.22975159 179.37069702 C147.65291672 174.56377203 156.06213663 169.73329386 164.45924377 164.88095093 C173.44469933 159.68862564 182.44568995 154.52427737 191.45924377 149.38095093 C200.80471568 144.04771796 210.13911533 138.695863 219.45924377 133.31845093 C221.00611877 132.42609741 221.00611877 132.42609741 222.58424377 131.51571655 C224.55432262 130.37804732 226.52256723 129.23719468 228.48878479 128.09286499 C230.58783701 126.88315395 232.69900331 125.69434815 234.81837463 124.52059937 C235.90513489 123.91119507 236.99189514 123.30179077 238.11158752 122.67391968 C239.09892883 122.12888794 240.08627014 121.5838562 241.10353088 121.02230835 C243.80962542 119.44428465 243.80962542 119.44428465 245.02174377 115.75595093 C244.285814 111.34037228 242.81970187 110.30424036 239.45924377 107.38095093 C236.82842973 105.64731104 234.10428606 104.12949839 231.33424377 102.63095093 C230.61881409 102.23263062 229.9033844 101.8343103 229.16627502 101.42391968 C223.67715899 98.39721083 218.88726196 96.26172425 212.45924377 97.38095093 C209.99086467 98.47985021 209.99086467 98.47985021 207.47096252 99.97079468 C206.50271545 100.51727661 205.53446838 101.06375854 204.53688049 101.62680054 C203.01345032 102.49510498 203.01345032 102.49510498 201.45924377 103.38095093 C199.41512354 104.50858829 197.36951777 105.63353644 195.32252502 106.75595093 C183.32762675 113.38449434 171.40243727 120.10614257 159.58253479 127.04354858 C151.98739258 131.49941515 144.35807386 135.8930913 136.70924377 140.25595093 C135.83249496 140.75613235 135.83249496 140.75613235 134.93803406 141.26641846 C131.9669553 142.96116464 128.99543499 144.65513465 126.0236969 146.34872437 C120.74813331 149.35575955 115.47653317 152.3697303 110.20466614 155.38323975 C107.29223747 157.04803029 104.37967152 158.71258058 101.46705627 160.37704468 C100.88994904 160.7068483 100.3128418 161.03665192 99.71824646 161.37644958 C96.19884679 163.38750443 92.67878946 165.39740295 89.15823364 167.40643311 C74.69916141 175.65767982 60.26023197 183.94233085 45.84596252 192.27157593 C44.90929749 192.81104858 43.97263245 193.35052124 43.00758362 193.90634155 C41.44044193 194.81317579 39.87729582 195.72700996 38.32106018 196.6524353 C35.40867958 198.37222962 32.82368488 199.85615563 29.45924377 200.38095093 C28.79408752 200.50598999 28.12893127 200.63102905 27.44361877 200.75985718 C18.33324113 201.50843716 11.09699386 196.70145786 3.45924377 192.38095093 C2.03418518 191.57633423 2.03418518 191.57633423 0.58033752 190.75546265 C-7.16388126 186.36078982 -14.85545622 181.87762087 -22.54075623 177.38095093 C-24.57182041 176.19573661 -26.60306413 175.01082989 -28.63450623 173.82626343 C-31.5734846 172.11228237 -34.51210057 170.39770461 -37.44920349 168.68051147 C-42.8848896 165.50416362 -48.32990146 162.34479994 -53.78684998 159.20516968 C-54.38929535 158.85842194 -54.99174072 158.51167419 -55.61244202 158.15441895 C-58.55014549 156.46398697 -61.48900849 154.77564276 -64.4294281 153.0899353 C-65.47550232 152.48858765 -66.52157654 151.88723999 -67.59934998 151.26766968 C-68.53061707 150.73359497 -69.46188416 150.19952026 -70.42137146 149.64926147 C-72.54075623 148.38095093 -72.54075623 148.38095093 -73.54075623 147.38095093 C-73.65731154 144.59955085 -73.70877746 141.8426608 -73.71775818 139.06015015 C-73.72432938 138.18677002 -73.73090057 137.31338989 -73.7376709 136.4135437 C-73.75747875 133.50424112 -73.76909153 130.59499068 -73.77903748 127.68563843 C-73.783113 126.69028202 -73.78718853 125.69492561 -73.79138756 124.66940689 C-73.81229376 119.38722184 -73.82656794 114.105063 -73.83592224 108.82284546 C-73.84691352 103.3973889 -73.88121494 97.97235085 -73.92109394 92.54704094 C-73.94742804 88.35332552 -73.95562954 84.15970648 -73.95920372 79.96591568 C-73.9640373 77.96870263 -73.97555754 75.97149292 -73.99424171 73.97436142 C-74.17724435 53.09190312 -70.68184991 35.23580181 -55.79808044 19.49325562 C-40.44153221 3.97494965 -21.15397811 -0.09827581 0 0 Z " fill="#E34231" transform="translate(74.54075622558594,-0.380950927734375)"/>
</svg>
